<svg xmlns="http://www.w3.org/2000/svg" viewBox="0 0 512 512" width="512" height="512">
  <rect width="512" height="512" fill="#E05555"/>
  <defs>
    <linearGradient id="g1" x1="0" y1="0" x2="1" y2="0">
      <stop offset="0%" stop-color="#FFFFFF"/>
      <stop offset="100%" stop-color="#F0A830"/>
    </linearGradient>
    <clipPath id="gc">
      <circle cx="256" cy="256" r="140"/>
    </clipPath>
  </defs>
  <circle cx="256" cy="256" r="140" fill="none" stroke="#FFFFFF" stroke-width="10"/>
  <g clip-path="url(#gc)" stroke="#FFFFFF" stroke-width="5" fill="none" opacity="0.3">
    <ellipse cx="256" cy="256" rx="65" ry="140"/>
    <ellipse cx="256" cy="256" rx="112" ry="140"/>
    <line x1="116" y1="196" x2="396" y2="196"/>
    <line x1="116" y1="256" x2="396" y2="256"/>
    <line x1="116" y1="316" x2="396" y2="316"/>
  </g>
  <path d="M 128,326 Q 186,120 310,156 Q 396,180 380,296" fill="none" stroke="url(#g1)" stroke-width="8" stroke-linecap="round" stroke-dasharray="14,20"/>
  <g transform="translate(370,160) rotate(45)" fill="#FFFFFF">
    <path d="M 0,0 L -18,-7 L -42,0 L -18,7 Z"/>
    <path d="M -21,-22 L -24,0 L -21,0 Z" opacity="0.7"/>
    <path d="M -21,22 L -24,0 L -21,0 Z" opacity="0.7"/>
  </g>
</svg>
