<svg xmlns="http://www.w3.org/2000/svg" viewBox="0 0 192 192" width="192" height="192">
  <rect width="192" height="192" rx="32" fill="#FFF9F5"/>
  <defs>
    <linearGradient id="gg" x1="0" y1="0" x2="1" y2="1">
      <stop offset="0%" stop-color="#5EC6C6"/>
      <stop offset="100%" stop-color="#E05555"/>
    </linearGradient>
    <linearGradient id="pg" x1="0" y1="0" x2="1" y2="0">
      <stop offset="0%" stop-color="#F0A830"/>
      <stop offset="100%" stop-color="#E05555"/>
    </linearGradient>
  </defs>
  <g transform="translate(96, 96)">
    <circle cx="0" cy="0" r="60" fill="none" stroke="url(#gg)" stroke-width="6"/>
    <ellipse cx="0" cy="0" rx="30" ry="60" fill="none" stroke="url(#gg)" stroke-width="4"/>
    <line x1="-57" y1="0" x2="57" y2="0" stroke="url(#gg)" stroke-width="3.5"/>
    <path d="M -52 -27 Q 0 -18, 52 -27" fill="none" stroke="url(#gg)" stroke-width="3"/>
    <path d="M -52 27 Q 0 36, 52 27" fill="none" stroke="url(#gg)" stroke-width="3"/>
    <path d="M 36,-66 Q 78,-30 66,24 Q 54,60 18,66" fill="none" stroke="url(#pg)" stroke-width="4.5" stroke-linecap="round" stroke-dasharray="6,9"/>
    <g transform="translate(36,-66) rotate(30)">
      <polygon points="0,-13 -6,6 0,2 6,6" fill="#F0A830"/>
      <line x1="-10" y1="0" x2="10" y2="0" stroke="#F0A830" stroke-width="3" stroke-linecap="round"/>
    </g>
  </g>
</svg>
