<svg xmlns="http://www.w3.org/2000/svg" viewBox="0 0 512 512" width="512" height="512">
  <rect width="512" height="512" rx="80" fill="#FFF9F5"/>
  <defs>
    <linearGradient id="g1" x1="0" y1="0" x2="1" y2="1">
      <stop offset="0%" stop-color="#E05555"/>
      <stop offset="50%" stop-color="#F0A830"/>
      <stop offset="100%" stop-color="#5EC6C6"/>
    </linearGradient>
    <linearGradient id="g2" x1="0" y1="0" x2="1" y2="0">
      <stop offset="0%" stop-color="#E05555"/>
      <stop offset="100%" stop-color="#F0A830"/>
    </linearGradient>
    <clipPath id="gc">
      <circle cx="256" cy="256" r="160"/>
    </clipPath>
  </defs>
  <circle cx="256" cy="256" r="160" fill="none" stroke="url(#g1)" stroke-width="12"/>
  <g clip-path="url(#gc)" stroke="#2D3748" stroke-width="6" fill="none" opacity="0.3">
    <ellipse cx="256" cy="256" rx="75" ry="160"/>
    <ellipse cx="256" cy="256" rx="128" ry="160"/>
    <line x1="96" y1="192" x2="416" y2="192"/>
    <line x1="96" y1="256" x2="416" y2="256"/>
    <line x1="96" y1="320" x2="416" y2="320"/>
  </g>
  <path d="M 112,340 Q 180,110 320,152 Q 416,180 396,300" fill="none" stroke="url(#g2)" stroke-width="10" stroke-linecap="round" stroke-dasharray="16,22"/>
  <g transform="translate(384,156) rotate(45)" fill="#E05555">
    <path d="M 0,0 L -20,-8 L -48,0 L -20,8 Z"/>
    <path d="M -24,-26 L -28,0 L -24,0 Z" opacity="0.7"/>
    <path d="M -24,26 L -28,0 L -24,0 Z" opacity="0.7"/>
  </g>
</svg>
